<?xml version="1.0" standalone="no"?><!DOCTYPE svg PUBLIC "-//W3C//DTD SVG 1.1//EN" "http://www.w3.org/Graphics/SVG/1.1/DTD/svg11.dtd"><svg t="1673858753953" class="icon" viewBox="0 0 1024 1024" version="1.1" xmlns="http://www.w3.org/2000/svg" p-id="822" xmlns:xlink="http://www.w3.org/1999/xlink" width="200" height="200"><path d="M128 320a32 32 0 0 1 0-64h768a32 32 0 0 1 0 64H128z" fill="#2B82D8" p-id="823"></path><path d="M320 384h512v441.6a102.4 102.4 0 0 1-102.4 102.4h-307.2a102.4 102.4 0 0 1-102.4-102.4V384z" fill="#CAE705" p-id="824"></path><path d="M352 256h320V224a64 64 0 0 0-64-64h-192a64 64 0 0 0-64 64v32z m64-160h192a128 128 0 0 1 128 128v96H288V224a128 128 0 0 1 128-128zM368 464a32 32 0 0 1 64 0v256a32 32 0 0 1-64 0v-256zM584 464a32 32 0 0 1 64 0v256a32 32 0 0 1-64 0v-256z" fill="#2B82D8" p-id="825"></path><path d="M256 320v480a64 64 0 0 0 64 64h384a64 64 0 0 0 64-64V320H256zM192 256h640v544a128 128 0 0 1-128 128H320a128 128 0 0 1-128-128V256z" fill="#2B82D8" p-id="826"></path></svg>