<?xml version="1.0" standalone="no"?><!DOCTYPE svg PUBLIC "-//W3C//DTD SVG 1.1//EN" "http://www.w3.org/Graphics/SVG/1.1/DTD/svg11.dtd"><svg t="1678269187484" class="icon" viewBox="0 0 1024 1024" version="1.1" xmlns="http://www.w3.org/2000/svg" p-id="1074" xmlns:xlink="http://www.w3.org/1999/xlink" width="32" height="32"><path d="M895.4 153.7c0-0.9-0.6-1.8-0.8-2.7s-0.6-2.2-1-3.2a30.7 30.7 0 0 0-1.7-3.1 18.3 18.3 0 0 0-1.3-2.4 30 30 0 0 0-8.9-8.9c-0.7-0.5-1.6-0.9-2.3-1.3l-3.2-2.1a30 30 0 0 0-3.2 0l-3-1.4a33.6 33.6 0 0 0-6.3-0.6H672a32 32 0 0 0 0 64h114.7L553.4 425.4a31.9 31.9 0 0 0 0 45.2 31.9 31.9 0 0 0 45.2 0L832 237.3V352a32 32 0 1 0 64 0V160a33.6 33.6 0 0 0-0.6-6.3zM425.4 553.4L192 786.7V672a32 32 0 1 0-64 0v192a33.6 33.6 0 0 0 0.6 6.3c0 0.9 0.6 1.8 0.8 2.7s0.6 2.2 1 3.2a30.7 30.7 0 0 0 1.7 3.1 18.3 18.3 0 0 0 1.3 2.4 29.1 29.1 0 0 0 8.9 8.9 18.3 18.3 0 0 0 2.4 1.3 30.7 30.7 0 0 0 3.1 1.7l3.2 1 2.7 0.8a33.6 33.6 0 0 0 6.3 0.6h192a32 32 0 0 0 0-64H237.3l233.3-233.4a32 32 0 0 0-45.2-45.2z" fill="#ff0000" p-id="1075"></path></svg>