<?xml version="1.0" standalone="no"?><!DOCTYPE svg PUBLIC "-//W3C//DTD SVG 1.1//EN" "http://www.w3.org/Graphics/SVG/1.1/DTD/svg11.dtd"><svg t="1678270816172" class="icon" viewBox="0 0 1024 1024" version="1.1" xmlns="http://www.w3.org/2000/svg" p-id="1960" xmlns:xlink="http://www.w3.org/1999/xlink" width="32" height="32"><path d="M512 512m-416 0a416 416 0 1 0 832 0 416 416 0 1 0-832 0Z" fill="#FFFFFF" p-id="1961"></path><path d="M512 96c229.76 0 416 186.24 416 416s-186.24 416-416 416S96 741.76 96 512 282.24 96 512 96z m0 32C299.936 128 128 299.936 128 512s171.936 384 384 384 384-171.936 384-384S724.064 128 512 128z" fill="#000000" p-id="1962" data-spm-anchor-id="a313x.7781069.0.i6" class="selected"></path><path d="M512 96c229.76 0 416 186.24 416 416s-186.24 416-416 416z" fill="#000000" p-id="1963" data-spm-anchor-id="a313x.7781069.0.i4" class="selected"></path><path d="M512 512m-192 0a192 192 0 1 0 384 0 192 192 0 1 0-384 0Z" fill="#000000" p-id="1964" data-spm-anchor-id="a313x.7781069.0.i5" class="selected"></path><path d="M512 320a192 192 0 1 1 0 384z" fill="#FFFFFF" p-id="1965"></path></svg>