<?xml version="1.0" standalone="no"?><!DOCTYPE svg PUBLIC "-//W3C//DTD SVG 1.1//EN" "http://www.w3.org/Graphics/SVG/1.1/DTD/svg11.dtd"><svg t="1677739351155" class="icon" viewBox="0 0 1024 1024" version="1.1" xmlns="http://www.w3.org/2000/svg" p-id="9311" xmlns:xlink="http://www.w3.org/1999/xlink" width="32" height="32"><path d="M877.2 354.7c-16.2-38.5-38.1-73.8-65.3-105.3l46.9-46.9L675 160l42.4 183.8 47.7-47.7C814.8 355.5 842 429.7 842 508c0 88.1-34.3 171-96.7 233.3C683 803.7 600.1 838 512 838s-171-34.3-233.3-96.7C216.3 679 182 596.1 182 508h-66c0 53.4 10.5 105.3 31.1 154.2 19.9 47.2 48.5 89.5 84.9 125.9S310.7 853 357.9 873c48.8 20.5 100.7 31 154.1 31s105.3-10.5 154.2-31.1c47.2-19.9 89.5-48.5 125.9-84.9S857 709.3 877 662.1c20.5-48.8 31-100.7 31-154.1 0-53.1-10.4-104.7-30.8-153.3z" p-id="9312" data-spm-anchor-id="a313x.7781069.0.i0" class="selected"></path></svg>