<?xml version="1.0" standalone="no"?><!DOCTYPE svg PUBLIC "-//W3C//DTD SVG 1.1//EN" "http://www.w3.org/Graphics/SVG/1.1/DTD/svg11.dtd"><svg t="1678269191294" class="icon" viewBox="0 0 1024 1024" version="1.1" xmlns="http://www.w3.org/2000/svg" p-id="1228" xmlns:xlink="http://www.w3.org/1999/xlink" width="32" height="32"><path d="M153.6 272.3328L192.256 128l40.6016 70.2976a405.76 405.76 0 0 1 204.2368-55.8592 409.6 409.6 0 0 1 173.2096 780.9024 25.6 25.6 0 1 1-21.6576-46.3872 358.4 358.4 0 0 0-151.552-683.3152 355.2768 355.2768 0 0 0-178.7392 48.8448l39.5776 68.5056z" fill="#000000" p-id="1229"></path><path d="M153.6 246.784l38.656-144.3328 40.6016 70.2976a405.76 405.76 0 0 1 204.2368-55.8592 409.6 409.6 0 0 1 173.2096 780.9024 25.6 25.6 0 1 1-21.6576-46.3872 358.4 358.4 0 0 0-151.552-683.3152 355.2768 355.2768 0 0 0-178.7392 48.8448l39.5776 68.5056z" fill="#ff0000" p-id="1230"></path></svg>